<?xml version="1.0" encoding="UTF-8"?>
<svg id="Layer_1" data-name="Layer 1" xmlns="http://www.w3.org/2000/svg" viewBox="0 0 903.61 239.95">
  <defs>
    <style>
      .cls-1 {
        fill: #1f1f1f;
      }
    </style>
  </defs>
  <path class="cls-1" d="M207.64,0s18.27,8.39,26.14,13.37c1.46.93,2.73,1.64,2.9,3.57l-15.93,42.7c1.47.48,9.1,2.89,9.49,3.66v1.98s-112.19-.16-112.19-.16v-1.81c1.59-1.15,9.64-3.87,9.64-3.87l-15.98-42.53c0-1.34,1.13-2.44,2.17-3.16L140.77,0h66.86ZM197.57,19.76h-46.73l4.94,28.11,36.42-.05,5.37-28.06ZM147.42,48.62l-5.7-28.49-17.85,8.76,8.77,22.75,14.78-3.02ZM224.54,28.88l-18.23-8.74-5.32,28.49,14.83,2.88,8.73-22.63ZM118.04,87.64v-24.35h112.2v24.35h-41.75v113.59h-28.51v-113.59h-41.94ZM0,201.23L48.44,63.22h36.77l48.35,138.01h-31.58l-21.67-67.15c-2.66-8.83-5.39-17.92-8.2-27.28-2.81-9.35-5.85-19.99-9.12-31.91h7.87c-3.4,11.92-6.5,22.57-9.31,31.96-2.81,9.39-5.6,18.46-8.38,27.23l-22.32,67.15H0ZM30.75,171.13v-22.79h72.15v22.79H30.75ZM298.05,203.46c-12.6,0-23.84-2.89-33.71-8.66-9.88-5.77-17.66-13.99-23.34-24.64-5.68-10.65-8.52-23.26-8.52-37.84s2.82-27.38,8.48-38.07c5.65-10.68,13.43-18.9,23.34-24.64,9.91-5.74,21.17-8.61,33.76-8.61,8.09,0,15.59,1.2,22.51,3.61,6.92,2.41,13.04,5.83,18.39,10.28,5.34,4.45,9.71,9.79,13.11,16.02,3.4,6.24,5.65,13.25,6.76,21.03h-28.81c-.8-4.14-2.15-7.79-4.03-10.98-1.88-3.18-4.17-5.87-6.85-8.06-2.69-2.19-5.77-3.86-9.26-5-3.49-1.14-7.3-1.71-11.44-1.71-7.84,0-14.53,1.88-20.05,5.65-5.53,3.77-9.77,9.09-12.74,15.98-2.96,6.89-4.45,15.05-4.45,24.5s1.47,17.51,4.4,24.36c2.93,6.85,7.18,12.17,12.74,15.93,5.56,3.77,12.26,5.65,20.1,5.65,4.14,0,7.92-.56,11.35-1.67,3.43-1.11,6.51-2.78,9.26-5,2.75-2.22,5.05-4.91,6.9-8.06s3.21-6.76,4.08-10.84h28.81c-1.11,7.72-3.38,14.7-6.81,20.93-3.43,6.24-7.8,11.58-13.11,16.02-5.31,4.45-11.42,7.86-18.34,10.24-6.92,2.38-14.42,3.57-22.51,3.57ZM372.73,201.23V63.22h55.2c10.37,0,19.34,1.84,26.91,5.51,7.56,3.67,13.38,8.89,17.46,15.65,4.08,6.76,6.11,14.81,6.11,24.13s-2.16,16.95-6.48,23.62-10.37,11.81-18.15,15.42-16.98,5.42-27.6,5.42h-36.49v-22.88h36.49c5.06,0,9.4-.89,13.01-2.69,3.61-1.79,6.41-4.31,8.38-7.55,1.98-3.24,2.96-7.02,2.96-11.35s-1-8.26-3.01-11.44c-2.01-3.18-4.82-5.66-8.43-7.46-3.61-1.79-7.95-2.69-13.01-2.69h-24.92v114.3h-28.44ZM450.91,201.23l-31.58-62.34h29.92l32.23,62.34h-30.57ZM534.93,203.46c-9.88,0-18.49-2.18-25.84-6.53-7.35-4.35-13.03-10.39-17.04-18.11-4.01-7.72-6.02-16.52-6.02-26.4s2.04-18.85,6.11-26.54c4.08-7.69,9.74-13.72,17-18.11,7.25-4.38,15.54-6.58,24.87-6.58,7.22,0,13.77,1.24,19.64,3.71,5.87,2.47,10.93,5.96,15.19,10.47,4.26,4.51,7.55,9.85,9.86,16.02,2.32,6.18,3.47,13,3.47,20.47v7.32h-86.42v-17.32h73.17l-12.23,4.08c0-4.94-.9-9.2-2.69-12.78-1.79-3.58-4.34-6.34-7.64-8.29-3.3-1.95-7.21-2.92-11.72-2.92s-8.41.97-11.72,2.92c-3.3,1.94-5.85,4.71-7.64,8.29-1.79,3.58-2.69,7.84-2.69,12.78v11.95c0,5,.91,9.4,2.73,13.2,1.82,3.8,4.45,6.73,7.87,8.8,3.43,2.07,7.61,3.1,12.55,3.1,3.58,0,6.76-.52,9.54-1.57,2.78-1.05,5.08-2.52,6.9-4.4,1.82-1.88,3.16-4.06,4.03-6.53l25.01.09c-1.24,6.42-4.01,12.12-8.34,17.09-4.32,4.97-9.74,8.85-16.26,11.62-6.52,2.78-13.75,4.17-21.72,4.17ZM736.4,203.36c-8.46,0-15.87-2.14-22.23-6.44-6.36-4.29-11.29-10.27-14.77-17.92-3.49-7.66-5.23-16.58-5.23-26.77s1.77-18.83,5.33-26.49c3.55-7.66,8.49-13.63,14.82-17.92,6.33-4.29,13.66-6.44,22-6.44,4.26,0,8.17.57,11.72,1.71,3.55,1.14,6.78,2.86,9.68,5.14,2.9,2.29,5.34,5.19,7.32,8.71h.19v-53.72h27.32v138.01h-26.95v-15h-.18c-1.79,3.77-4.14,6.93-7.04,9.49-2.9,2.56-6.21,4.48-9.91,5.74s-7.72,1.9-12.04,1.9ZM743.53,181.04c4.57,0,8.58-1.19,12.04-3.57,3.46-2.38,6.14-5.73,8.06-10.05,1.91-4.32,2.87-9.39,2.87-15.19s-.94-10.94-2.83-15.24c-1.88-4.29-4.55-7.62-8.01-10-3.46-2.38-7.5-3.57-12.13-3.57-4.39,0-8.23,1.14-11.53,3.43-3.3,2.29-5.85,5.56-7.64,9.82s-2.69,9.45-2.69,15.56.91,11.32,2.73,15.61c1.82,4.29,4.37,7.56,7.64,9.82,3.27,2.25,7.1,3.38,11.49,3.38ZM811.2,239.95l.09-21.58,12.41-.09c2.1.06,3.84-.25,5.23-.93,1.39-.68,2.58-1.78,3.57-3.29.99-1.51,1.91-3.54,2.78-6.07l2.59-7.13-37.7-97.44h28.71l16.39,48.26c1.85,5.74,3.64,11.5,5.37,17.27,1.73,5.77,3.43,11.56,5.09,17.37h-7.69c1.54-5.8,3.18-11.59,4.91-17.37,1.73-5.77,3.55-11.53,5.46-17.27l16.39-48.26h28.34l-43.16,112.91c-2.04,5.43-4.48,9.89-7.32,13.38-2.84,3.49-6.19,6.07-10.05,7.73-3.86,1.67-8.32,2.5-13.38,2.5h-18.06ZM631.5,202.9c-8.45,0-15.84-2.14-22.14-6.41-6.31-4.27-11.2-10.22-14.65-17.84-3.46-7.62-5.19-16.5-5.19-26.65s1.76-18.75,5.28-26.37c3.52-7.62,8.44-13.57,14.75-17.84,6.31-4.27,13.57-6.41,21.78-6.41,4.16,0,8.05.55,11.67,1.66,3.61,1.11,6.86,2.8,9.74,5.07,2.88,2.27,5.3,5.1,7.26,8.48h.46v-13.18h26.37v97.37h-26.46v-14.57h-.28c-1.84,3.63-4.2,6.67-7.08,9.13-2.88,2.46-6.11,4.33-9.69,5.62s-7.52,1.94-11.81,1.94ZM638.48,180.68c4.59,0,8.61-1.18,12.04-3.55,3.43-2.37,6.08-5.7,7.95-10,1.87-4.3,2.8-9.34,2.8-15.12s-.95-10.89-2.85-15.17c-1.9-4.27-4.55-7.59-7.95-9.96-3.4-2.37-7.4-3.55-11.99-3.55-4.35,0-8.15,1.12-11.39,3.37-3.25,2.24-5.77,5.49-7.58,9.73-1.81,4.24-2.71,9.44-2.71,15.58s.89,11.27,2.66,15.54c1.78,4.27,4.3,7.53,7.58,9.77,3.28,2.24,7.09,3.37,11.44,3.37Z"/>
</svg>