<svg width="202" height="202" viewBox="0 0 125 202" fill="none" xmlns="http://www.w3.org/2000/svg">
<path d="M95.93 0C95.93 0 114.2 8.39 122.07 13.37C123.53 14.3 124.8 15.01 124.97 16.94L109.04 59.64C110.51 60.12 118.14 62.53 118.53 63.3V65.28L6.34 65.12V63.31C7.93 62.16 15.98 59.44 15.98 59.44L0 16.91C0 15.57 1.13 14.47 2.17 13.75L29.06 0H95.92H95.93ZM85.86 19.76H39.13L44.07 47.87L80.49 47.82L85.86 19.76ZM35.71 48.62L30.01 20.13L12.16 28.89L20.93 51.64L35.71 48.62ZM112.83 28.88L94.6 20.14L89.28 48.63L104.11 51.51L112.84 28.88H112.83ZM6.33 87.64V63.29H118.53V87.64H76.78V201.23H48.27V87.64H6.33Z" fill="#1F1F1F"/>
</svg>
